<svg id="Calque_1" data-name="Calque 1" xmlns="http://www.w3.org/2000/svg" viewBox="0 0 531.02 681.85"><defs><style>.cls-1{fill:#fff;}</style></defs><title>logo_rempli_blanc</title><path class="cls-1" d="M442.25,879.65c-26.75,0-64.41-3.89-91.91-22.39l-.54-.36-.63.14a58,58,0,0,1-10.4,1.27c-3.58,0-4.49-.75-4.69-1-.06-.07-.16-.2-.1-.58l.21-1.27-1.21-.4c-2.65-.89-4.9-2.35-5-3h0a1.59,1.59,0,0,1,.42-.41c6.1-4.57,12.6-9.82,12.6-14.2,0-2.26,7-16.15,13.81-28.27l.77-1.37-1.41-.7a2.8,2.8,0,0,1-1.33-4c1.83-3.65,6.55-7.46,6.6-7.5l.87-.69-.42-1c-.65-1.65-1.21-4.5-.33-5.38A8,8,0,0,0,362,784c2.22-3.21,20.46-29.41,30.65-40.52L394,742,387.24,739l10.28-9.35-.82-1.09a12.84,12.84,0,0,1-1.87-3.3c1.41-1.31,6.61-5.88,8.66-7.67l1.68-1.47L401,714.05a22,22,0,0,0,3.83-5.7c2.21-2.19,14.78-16.57,8.19-56.1l-.29-1.73-1.66.56a31.91,31.91,0,0,1-7.55,1.61,3.13,3.13,0,0,1-.68-.06c-.17-1.25.76-5.58,2.12-9.66l.52-1.53-4.12-1L404,629.56l-3.47,2.77a23.08,23.08,0,0,1-4,2.63,27.15,27.15,0,0,1,.41-5.21l.48-2.91-5.3,2.65c-.53-1.45-1-4.31.72-8.4,2.56-6,16.12-51.89,16.12-54.59v-4.37l-2.68,3.45c-1.91,2.45-7.36,9.14-9.65,10.67l-.13.08-.1.11c-.23.23-23,22.9-34.61,28.72-11.18,5.59-18,19.91-19.45,23.14a6.88,6.88,0,0,1-1.91.35,1.84,1.84,0,0,1-.47,0v-.1a34,34,0,0,1,1-6.64l1.79-7.19L330.2,631.4a9.31,9.31,0,0,1-2.36-2.57c-.43-.87.3-3.26,1-4.66l3.32-6.64-11.53,9.88c-1.18-1.42-1.92-2.81-1.78-3.25l1.31-2.63-2.91.49a19.76,19.76,0,0,1-2.75.23,5.56,5.56,0,0,1-1.5-.15v-7l-1.34-.14c-.28,0-28-3.13-31.69-21.8l-.05-.28-.15-.23c-.12-.19-11.65-18.89-7.79-45a109.09,109.09,0,0,1,8.44-24.44c7.9-15.89,18-23.95,29.88-23.95,6.56,0,13.75,2.5,21.39,7.43l.28.19.34,0a27.42,27.42,0,0,0,3.13.17c4.26,0,7.06-1,8.31-2.83,1.72-2.58,12.17-7.27,13.76-7.33l.46,0,.42-.27c4.64-3.42,19.68-15,18.58-20.5a2.78,2.78,0,0,1,.3-2.3,3.29,3.29,0,0,1,2.24-.91l1.25,0,.22-1.23A91.23,91.23,0,0,1,383.29,461h9.33l-4.19-5.24,12-1-4.21-5.26A88.5,88.5,0,0,1,406.5,448c2.66,0,33.73-10.89,36.25-14.67,1.84-2.76,28.38-21.44,36.11-23.37a106.23,106.23,0,0,1,27.71-4.11c7.79,0,14.46,1.18,19.83,3.53l6.59,2.87L528.1,407c-.26-.28-25.7-28-28.61-56.13l-.06-.62-.49-.4c-2.81-2.27-10.35-8.6-12.09-11a9.75,9.75,0,0,1,3-.34c.6,0,1,0,1,0l5.83.38-4.92-3.15c-1.87-1.18-3.69-2.88-3.91-3.61a9.62,9.62,0,0,1,2.61-.62c1.89-.29,4.49-.69,4.49-3s-2.94-3.4-8.74-3.49a1.08,1.08,0,0,1-.14-.67c.1-.46.83-1,1.94-1.45l1.81-.72-1.17-1.57c-.41-.56-.92-1.65-.75-2.13.1-.28.67-.45.91-.51l.86-.22.23-.85c0-.14,4.18-14.35,27-22l1-.34V293.5a5,5,0,0,0-1.66-3.55,8.81,8.81,0,0,1,4.72-4.06l.16-.06.15-.11c3.62-2.58,7.65-6.18,6.53-8.78-1-4.28,1-54.69,19.1-61l.68-.24.24-.68c2.28-6.52,6.14-13.49,8.24-13.49.42,0,.84.47,1.12.86l.62.88,1-.31c2-.6,7.59-2.14,9.65-2.14h.1l.25.25.69-.05s1.4-.12,3.71-.12c5.85,0,17.34.69,28.49,5.31,13.63,5.64,22.45,15.3,26.24,28.72l.3,1.09h1.14c7.09,0,22.15-.08,28.23-.71a8.6,8.6,0,0,1-.57,1.54l-1.62,3.23,3.43-1.14a16.52,16.52,0,0,1,4-.81h0a9.59,9.59,0,0,1-.57,3.36l-1.18,1.17,1.31,1c4.61,3.78,9.86,8.61,10.45,10v2.71l2.35-1.61a45.49,45.49,0,0,1,23.7-6.39c15,0,29.61,6.8,43.4,20.23l.23.21.29.11q5.09,1.91,7.53,2.64a4.83,4.83,0,0,1-2.47,2.54l-1.43.47.48,1.42a59.57,59.57,0,0,1,1.54,24.93c-2.77,18.35-13.81,32.57-32.8,42.26l-.63.32-.15.69c-.85,3.73-4.87,22.34-1.88,27,2.27,5.93,3.76,12.07,3.23,13.29l0,0-.07.09c-.91,1.21-2.43,2.56-3.1,2.56l-1.76-.88-.41,1.93c-.19,1-.72,3.64-.94,5.26a5.71,5.71,0,0,1-1.85.42,1,1,0,0,1-.41-.06L705,388.14v6.36c0,3.18-.26,8.17-.84,9.33l-.16.32v.35c0,.12-.27,3.69-7.67,4.51l-.33,0-.28.17c-8.4,5.13-18.39,11.88-18.71,15.12-1.33,2.79-20.5,13.8-38.74,16.68l-.6.09-.37.49c-.69.92-6,9.74,19,35.77a10,10,0,0,1,1,3.22l-3,3,4.45-.64a28.24,28.24,0,0,1,3.29-.23,8,8,0,0,1,1.89.17c-.67,3.33-1.89,9.62-1.89,10.58v1.19l1.16.27c.45.11,11.12,2.6,17.62,2.6a15.44,15.44,0,0,0,2.86-.23c2,4.67,3.21,4.67,3.86,4.67h.24l.22-.07c.22-.07,21.87-7,44.71-7,23.16,0,39.16,6.84,47.56,20.35,22.47,36.15,20.7,40,16,50.44l-.07.15c-5.44,12-26.57,36.26-50.75,38.12-1.23.1-2.48.15-3.71.15-22.89,0-37.9-16.48-38-16.65l-.09-.09-.09-.08A35,35,0,0,0,683,580.68a33.94,33.94,0,0,0-4.72.33,69.68,69.68,0,0,1-10,.69c-14.28,0-26.61-3.76-33.81-10.31L632,569.11v3.39a147.21,147.21,0,0,1-9.89,48.44l-.08.2,0,.21c0,.43-.91,10.73,11.2,30.92,11.51,19.19,12.79,23.45,12.84,23.62l.07.24.15.22c2.77,4,9.44,13.43,11.56,14.49,3.2,1.6,17.57,12.87,16.28,16.1l-.11.27v.29a3.4,3.4,0,0,1-.56,1.94l-.77.76,1,2-5.35,5.36,3,.42a16.1,16.1,0,0,1,4.62,1.29,29.09,29.09,0,0,1-3.47,4.17L671,724.91l4.52,2.26-3.59,7.17.15.55c1.24,4.55,12.23,44.51,16.39,48.67a15.7,15.7,0,0,0,6.25,4.1,13.79,13.79,0,0,1-.77,2.34h-2.54l5.3,6.62-3.07,5.11,2.22,2.22-5.12,2,1.79,1.62c4.19,3.77,8.92,8.57,9.49,10-.21.81-2.27,3-4.43,4.76l-1.31,1,1.19,1.18c.71.72,2.56,3,2.56,4.94,0,2.81,2,16.27,3.16,18.67l.23.45c2.36,4.6,3.23,7.78,2.61,9.45a1.71,1.71,0,0,1-1.06,1,8.72,8.72,0,0,1-3,.78,1.16,1.16,0,0,1-.3,0,.56.56,0,0,1,.29.37l-2.93.64a3.83,3.83,0,0,1-.39,2.73,1.37,1.37,0,0,1-1.15.4h-.19l-.19,0c-.4.1-40,10.35-81.36,10.35-30.5,0-54.19-5.43-70.43-16.15l-.25-.16-.29-.06a19.39,19.39,0,0,1-3.79-1.11v-.35l-.83-.41c-1.95-1-3.93-2.45-4.25-3.14l.41-.82-2.61-2.6,5.15-4.29.1-.52c.63-3.15,2-10.74.87-13-.82-1.65-1.76-12.93-1-14.67.38-.77.49-2.25.71-5.84.45-7.12,1.28-20.36,6.07-25.83l1.39-1.6L542.17,782l9-9L541,775.19l3.62-5.08-1.29-.86a7.63,7.63,0,0,1-1.37-1.18c2.1-2.83,14.07-20.58.82-42.35l-1.52-2.51-1.14,2.71c-2.74,6.51-8.54,19.63-10.82,22.68-2.84,3.78-2.53,10.37-2.35,12.45-1.28,1.57-2.87,3-3.45,3-1.09,0-2,.88-3.41,3.35-3.53,6.07-10.47,23.13-7,29.73,4.34,14.73,6.48,17.35,7.71,17.82,2,3.52,6.54,29.38,1.36,38.88-5.61,10.3-19,21.24-33.78,22.22h-.17A283.93,283.93,0,0,1,442.25,879.65Z" transform="translate(-269.68 -199.3)"/><path d="M568.08,202.32l.28.28,1.38-.11s1.36-.11,3.59-.11c5.74,0,17,.68,27.92,5.2,13.18,5.45,21.71,14.79,25.36,27.73l.62,2.19h2.27c14,0,21.68-.23,25.9-.51l-2.81,5.63,6.86-2.27c.48-.16,1.19-.36,1.87-.51a5.43,5.43,0,0,1-.16.76L659,242.72l2.57,2.1c4.06,3.33,8.8,7.66,9.9,9.24v5.14l4.7-3.23c.09-.06,9.07-6.12,22.85-6.12,14.6,0,28.85,6.66,42.36,19.8l.45.44.59.22c2.44.91,4.26,1.57,5.64,2a1.64,1.64,0,0,1-.54.31l-2.83,1,.93,2.84a58.05,58.05,0,0,1,1.47,24.36c-2.73,17.78-13.49,31.59-32,41l-1.25.64-.32,1.37c-.05.22-1.28,5.68-2.16,11.73-1.58,10.81-.75,14.47.41,16.33,1.88,5,3.29,10.31,3.16,12a9.44,9.44,0,0,1-1.72,1.67l-2.93-1.47-.77,3.85c-.28,1.41-.6,3-.81,4.39l-5.25-10.51V394.5c0,3.73-.33,7.79-.68,8.66l-.43.45.1.82c-.19.89-1.72,2.58-6.32,3.09l-.66.07-.57.35c-.19.11-4.63,2.83-9.15,6-7.73,5.37-9.86,7.82-10.23,9.87-2.47,3-20.17,13-37.53,15.76l-1.2.19-.73,1c-1.25,1.67-6.2,11.3,18.9,37.53a11.88,11.88,0,0,1,.68,1.85L650,485.73l8.89-1.26a26.29,26.29,0,0,1,3.08-.22h.09c-1.59,8.11-1.59,9-1.59,9.25v2.38l2.31.54c.46.11,11.3,2.64,18,2.64a19.44,19.44,0,0,0,2-.09c1.78,3.71,3.18,4.53,4.76,4.53H688l.45-.15c.22-.06,21.66-6.91,44.25-6.91s38.18,6.61,46.28,19.64c11,17.7,16.42,28.11,18.12,34.81,1.51,6,.18,8.91-2.23,14.22l-.07.15c-5.32,11.7-25.94,35.44-49.5,37.25-1.2.09-2.41.14-3.6.14-22.13,0-36.79-16-36.93-16.15l-.17-.19-.2-.15a36.5,36.5,0,0,0-21.36-7,35.43,35.43,0,0,0-4.93.35,69.69,69.69,0,0,1-9.76.67c-13.91,0-25.87-3.62-32.8-9.92l-5-4.55v6.77a145.74,145.74,0,0,1-9.79,47.89l-.15.39,0,.42c0,.45-1,11.23,11.42,31.84,10.7,17.85,12.48,22.66,12.67,23.22l.07.43.36.52c6.27,9,10.35,14.08,12.12,15a72.08,72.08,0,0,1,8.68,6.47c6,5.16,6.74,7.46,6.82,7.88l-.15.37v.57a3.11,3.11,0,0,1-.18,1l-1.47,1.47,1,1.93,0,.07-2.47,2.47-4.23,4.23,5.92.86a23.45,23.45,0,0,1,2.47.51c-.71.87-1.55,1.78-2.16,2.4l-2.94,2.94,3.72,1.86,1.32.66-2.66,5.32-.52,1,.31,1.11c0,.11,3,11.17,6.52,22.58,7.22,23.72,9.27,25.77,10.25,26.75a19,19,0,0,0,5.33,3.88h-4.45l3.9,4.87,2.69,3.38L692.93,800l-1.21,2,1.44,1.43-.77.31-4.48,1.8,3.58,3.22a85,85,0,0,1,8.75,8.87,23.43,23.43,0,0,1-3.61,3.56L694,823.24l2.33,2.37c.86.88,2.13,2.71,2.13,3.89,0,3,2,16.66,3.32,19.34.06.13.14.29.23.46,2.94,5.73,2.76,7.67,2.55,8.24,0,.08-.05.11-.21.17a13.48,13.48,0,0,1-1.31.46l-5.58-26.84V860.5a3.4,3.4,0,0,0,.07.7,3.82,3.82,0,0,1,0,1.3h-.43l-.37.1c-.39.1-39.82,10.3-81,10.3-30.2,0-53.62-5.35-69.61-15.9l-.49-.33-.57-.11c-.88-.18-1.87-.44-2.59-.67v-.24l-1.66-.83a17.14,17.14,0,0,1-3.13-2l.44-.88-1.53-1.53-.68-.68,3.48-2.9.81-.67.21-1c1.45-7.26,1.71-11.93.76-13.89-.68-1.76-1.48-11.45-1-13.49.46-1,.57-2.4.81-6.3.44-6.93,1.25-19.85,5.7-24.93l2.79-3.19-3.94-1.58-.77-.31,3.78-3.78,7.29-7.28-10.06,2.23-1.36.3.45-.63,1.8-2.52L544.16,768l-.21-.15a38.72,38.72,0,0,0,5.2-11.44c2-7.3,2.7-18.68-5.09-31.47l-3-5-2.27,5.41c-3.16,7.5-8.6,19.64-10.64,22.36-2.92,3.89-2.88,10.09-2.7,12.85a10.06,10.06,0,0,1-2.15,2c-1.81.12-3,1.6-4.46,4.09-2,3.49-11.27,22.72-7.08,31,4,13.59,6.3,17.39,8,18.45,2.07,4.9,5.88,28.31,1.16,37-5.42,9.94-18.35,20.5-32.57,21.45h-.17l-.17,0a283,283,0,0,1-45.71,3.6c-26.54,0-63.89-3.84-91.07-22.14l-1.07-.72-1.26.28a56.59,56.59,0,0,1-10.08,1.24,10.54,10.54,0,0,1-3.22-.36l.33-2-2.43-.81a17,17,0,0,1-3.2-1.48c6.31-4.78,12.21-9.81,12.25-14.63.3-2.55,7.29-16.28,13.62-27.58l1.53-2.75-2.81-1.4a1.32,1.32,0,0,1-.66-2c1.39-2.78,4.94-6,6.19-7l1.74-1.39-.82-2.06a8,8,0,0,1-.61-3.83,9.66,9.66,0,0,0,2.69-4.94c2.89-4.16,20.46-29.31,30.34-40.09l2.86-3.12-3.89-1.67L390,738.58l7.55-6.86,2-1.83-1.63-2.19a16.68,16.68,0,0,1-1.27-2c1.8-1.62,5.45-4.83,7.85-6.93l3.36-2.94-4-2-.52-.26a20.9,20.9,0,0,0,2.75-4.38c2.92-3.06,14.87-18.3,8.39-57.17l-.58-3.47-3.33,1.11a36,36,0,0,1-6.17,1.48,51.18,51.18,0,0,1,2-7.68l1-3.07-3.14-.79-1.09-.27,1.27-5.09,2.16-8.62-6.94,5.55c-.46.37-1,.74-1.46,1.08.07-.73.17-1.52.29-2.25l1-5.81-5.27,2.64-1,.47a11.35,11.35,0,0,1,1.05-5.61c2.73-6.37,16.24-52.27,16.24-55.18v-8.74l-5.37,6.9c-2.78,3.58-7.5,9.15-9.29,10.34l-.25.17-.21.21c-.23.23-22.79,22.72-34.22,28.44-10.4,5.19-17.14,17.55-19.5,22.48a39.13,39.13,0,0,1,.75-4.07l3.6-14.41L337.1,619.7,330,629.19a5.27,5.27,0,0,1-.76-1,8.77,8.77,0,0,1,1-3.39l6.65-13.29-11.28,9.67-4.67,4a6,6,0,0,1-.47-.84l2.4-4.8-5.8.95a18.28,18.28,0,0,1-2.51.21v-7l-2.69-.28c-.27,0-26.85-3-30.37-20.61l-.11-.54-.29-.47c-.12-.18-11.34-18.32-7.58-43.89.37-1.86,9.79-47.18,36.84-47.18,6.27,0,13.19,2.42,20.57,7.19l.58.37.68.09a32,32,0,0,0,3.31.18c4.8,0,8-1.18,9.56-3.5,1.21-1.82,10.37-6.31,12.6-6.66h.89l.79-.58c.2-.15,4.92-3.64,9.59-7.81,9.28-8.27,10.05-11.82,9.57-14.2a1.72,1.72,0,0,1,0-1.05,1.85,1.85,0,0,1,1.07-.36l2.53.08.43-2.59c.57-3.4,1.37-7.41,1.94-9.49h11.34l-3.9-4.87-.48-.61,6.39-.53,5.61-.47-3.52-4.39-.87-1.1a63.18,63.18,0,0,1,7.53-1c3.07,0,17.34-5.45,18.95-6.08,16.43-6.31,17.94-8.35,18.52-9.22,2.34-2.93,28.2-21,35.26-22.79l.08,0,.08,0a104.44,104.44,0,0,1,27.19-4c7.57,0,14,1.14,19.22,3.4L539,416.49,529.2,406c-.25-.27-25.36-27.63-28.22-55.27l-.12-1.24-1-.78c-3.1-2.51-7.41-6.2-10-8.7.51,0,.87,0,.87,0l11.72.79-9.91-6.31a19.39,19.39,0,0,1-2-1.47l.09,0c1.87-.29,5.77-.89,5.77-4.48,0-2.6-2.15-4.17-6.54-4.74l2.3-.91-2.35-3.13c-.08-.12-.17-.27-.25-.42l1.26-.33.47-1.67c.16-.56,4.1-13.63,26.06-20.95l2-.69V293.5a6.54,6.54,0,0,0-1.29-3.71,7.77,7.77,0,0,1,3.4-2.5l.34-.14.29-.21c8.26-5.89,7.68-9.1,7.11-10.43-.28-2.27-.18-15.38,2.44-29.25,3.19-16.87,8.76-27.5,15.7-29.93l1.36-.48.48-1.36c2-5.6,5-11.17,6.67-12.32l.06.07,1.25,1.75,2.05-.62a64.71,64.71,0,0,1,8.72-2.05m.5-3c-2.73,0-10.08,2.2-10.08,2.2a2.93,2.93,0,0,0-2.34-1.49c-4.59,0-9.66,14.49-9.66,14.49-20,7-21,61-20,63s-6,7-6,7a9.72,9.72,0,0,0-6,6,3.55,3.55,0,0,1,2,3c-24,8-28,23-28,23-4,1-1,5-1,5-5,2-2,5-2,5s8,0,8,2-6,1-7,3S491,337,491,337s-.47,0-1.14,0c-2,0-5.86.28-4.36,2.53,2,3,12.5,11.5,12.5,11.5,3,29,29,57,29,57-6.26-2.73-13.49-3.65-20.43-3.65a107,107,0,0,0-28.07,4.15c-8,2-35,21-37,24s-32,14-35,14-13,2-13,2l4,5-12,1,4,5h-7c-1,0-3,12-3,12s-5,0-4,5-18,19-18,19c-2,0-13,5-15,8-1.2,1.8-4.56,2.16-7.06,2.16a26.35,26.35,0,0,1-2.94-.16c-8.41-5.43-15.77-7.67-22.2-7.67-30.27,0-39.8,49.67-39.8,49.67-4,27,8,46,8,46,4,20,33,23,33,23v6c0,1,1.5,1.25,3,1.25a20.92,20.92,0,0,0,3-.25c-1,2,3,6,3,6l7-6s-2,4-1,6,4,4,4,4l9-12a35.48,35.48,0,0,0-1,7c0,1.29.92,1.65,2,1.65a9.77,9.77,0,0,0,3-.65s7-17,19-23,35-29,35-29c3-2,10-11,10-11,0,2-13,47-16,54s0,11,0,11l4-2s-1,6,0,7a.64.64,0,0,0,.47.16c1.58,0,5.53-3.16,5.53-3.16l-2,8,4,1s-3,9-2,11c.25.5,1,.69,2,.69,3,0,8-1.69,8-1.69,7,42-8,55-8,55-1,3-5,7-5,7l4,2s-8,7-9,8,2,5,2,5l-11,10,7,3c-11,12-31,41-31,41a6.19,6.19,0,0,1-2,4c-2,2,0,7,0,7s-5,4-7,8,2,6,2,6-14,25-14,29-8,10-12,13,5,6,5,6c-.43,2.57,2.63,3.31,6.27,3.31a59,59,0,0,0,10.73-1.31c27.16,18.28,63.88,22.65,92.75,22.65a283.46,283.46,0,0,0,46.25-3.65c15-1,29-12,35-23s0-41-2-41-7-17-7-17c-4-7,7-31,9-31s5-4,5-4-1-8,2-12,11-23,11-23c14,23-1,41-1,41-1,1,2,3,2,3l-5,7,9-2-7,7,5,2c-7,8-6,30-7,32s0,14,1,16-1,12-1,12l-6,5,3,3c-1,2,5,5,5,5,0,1,5,2,5,2,19,12.52,45.55,16.4,71.26,16.4,42.06,0,81.74-10.4,81.74-10.4,3.59,0,3.15-4,3-4.86a.64.64,0,0,1,0-.14s0,0,0,.14c.08.26.36.75,1.46.75a10,10,0,0,0,3.52-.89c5-2,0-11-1-13s-3-15-3-18-3-6-3-6,5-4,5-6-10-11-10-11l5-2-3-3,3-5-4-5c1,0,2-5,2-5s-3,0-7-4-16-48-16-48l4-8-4-2a27.36,27.36,0,0,0,4-5c1-2-6-3-6-3l4-4-1-2a4.94,4.94,0,0,0,1-3c2-5-15-17-17-18s-11-14-11-14-1-4-13-24-11-30-11-30a147.52,147.52,0,0,0,10-49c8.53,7.75,22.46,10.7,34.82,10.7a72.57,72.57,0,0,0,10.18-.7,32.22,32.22,0,0,1,4.51-.32,33.69,33.69,0,0,1,19.49,6.32s15.34,17.15,39.17,17.15c1.25,0,2.53,0,3.83-.15,26-2,47-28,52-39s7-15-16-52c-10.25-16.49-30-21.06-48.83-21.06-23.36,0-45.17,7.06-45.17,7.06-1,0-3-5-3-5a9.07,9.07,0,0,1-3.72.56c-6.4,0-17.28-2.56-17.28-2.56,0-1,2-11,2-11,0-1-1.75-1.25-3.5-1.25a28.37,28.37,0,0,0-3.5.25c1-1-1-5-1-5-25-26-19-34-19-34,19-3,40-15,40-18s18-14,18-14c9-1,9-6,9-6,1-2,1-10,1-10a1.77,1.77,0,0,0,1.74.89,8.87,8.87,0,0,0,3.26-.89c0-1,1-6,1-6a1.56,1.56,0,0,0,.7.16c1.93,0,4.3-3.16,4.3-3.16,2-2-3-15-3-15-3-4,2-26,2-26,47-24,32-69,32-69,3-1,4-5,4-5-1,0-9-3-9-3-16.65-16.2-32.29-20.65-44.45-20.65-14.87,0-24.55,6.65-24.55,6.65,0-2-11-11-11-11,1-1,1-5,1-5,0-.67-.67-.89-1.56-.89a18.1,18.1,0,0,0-4.44.89,10,10,0,0,0,1-4c-2,1-30,1-30,1-9.13-32.36-44.42-35.12-56.17-35.12-2.41,0-3.83.12-3.83.12a1.43,1.43,0,0,0-.92-.2Z" transform="translate(-269.68 -199.3)"/></svg>