<?xml version="1.0" encoding="utf-8"?>
<!-- Generator: Adobe Illustrator 23.0.4, SVG Export Plug-In . SVG Version: 6.00 Build 0)  -->
<svg version="1.1" id="Calque_1" xmlns="http://www.w3.org/2000/svg" xmlns:xlink="http://www.w3.org/1999/xlink" x="0px" y="0px"
	 viewBox="0 0 1080 1080" style="enable-background:new 0 0 1080 1080;" xml:space="preserve">
<style type="text/css">
	.st0{fill:none;stroke:#000000;stroke-width:4;stroke-miterlimit:10;}
</style>
<path class="st0" d="M527,408c0,0-26-28-29-57c0,0-10.5-8.5-12.5-11.5s12-6,12-6s-12,0-11-2s7-1,7-3s-8-2-8-2s-3-3,2-5c0,0-3-4,1-5
	c0,0,4-15,28-23c0,0,0-2-2-3c0,0,1-4,6-6c0,0,7-5,6-7s0-56,20-63c0,0,7-20,12-13c0,0,10-3,11-2c0,0,49-4,60,35c0,0,28,0,30-1
	c0,0,0,2-1,4c0,0,6-2,6,0c0,0,0,4-1,5c0,0,11,9,11,11c0,0,32-22,69,14c0,0,8,3,9,3c0,0-1,4-4,5c0,0,15,45-32,69c0,0-5,22-2,26
	c0,0,5,13,3,15c0,0-3,4-5,3c0,0-1,5-1,6c0,0-4,2-5,0c0,0,0,8-1,10c0,0,0,5-9,6c0,0-18,11-18,14s-21,15-40,18c0,0-6,8,19,34
	c0,0,2,4,1,5c0,0,7-1,7,1c0,0-2,10-2,11c0,0,17,4,21,2c0,0,2,5,3,5c0,0,71-23,94,14s21,41,16,52s-26,37-52,39s-43-17-43-17
	s-10-8-24-6s-34,0-45-10c0,0,0,24-10,49c0,0-1,10,11,30s13,24,13,24s9,13,11,14s19,13,17,18c0,0,0,2-1,3l1,2l-4,4c0,0,7,1,6,3
	s-4,5-4,5l4,2l-4,8c0,0,12,44,16,48s7,4,7,4s-1,5-2,5l4,5l-3,5l3,3l-5,2c0,0,10,9,10,11s-5,6-5,6s3,3,3,6s2,16,3,18s6,11,1,13
	s-5,0-5,0s1,5-3,5c0,0-103,27-153-6c0,0-5-1-5-2c0,0-6-3-5-5l-3-3l6-5c0,0,2-10,1-12s-2-14-1-16s0-24,7-32l-5-2l7-7l-9,2l5-7
	c0,0-3-2-2-3c0,0,15-18,1-41c0,0-8,19-11,23s-2,12-2,12s-3,4-5,4s-13,24-9,31c0,0,5,17,7,17s8,30,2,41s-20,22-35,23
	c0,0-87,16-139-19c0,0-18,4-17-2c0,0-9-3-5-6s12-9,12-13s14-29,14-29s-4-2-2-6s7-8,7-8s-2-5,0-7s2-4,2-4s20-29,31-41l-7-3l11-10
	c0,0-3-4-2-5s9-8,9-8l-4-2c0,0,4-4,5-7c0,0,15-13,8-55c0,0-9,3-10,1s2-11,2-11l-4-1l2-8c0,0-5,4-6,3s0-7,0-7l-4,2c0,0-3-4,0-11
	s16-52,16-54c0,0-7,9-10,11c0,0-23,23-35,29s-19,23-19,23s-5,2-5-1s1-7,1-7l-9,12c0,0-3-2-4-4s1-6,1-6l-7,6c0,0-4-4-3-6c0,0-6,1-6-1
	s0-6,0-6s-29-3-33-23c0,0-12-19-8-46c0,0,14-73,62-42c0,0,8,1,10-2s13-8,15-8c0,0,19-14,18-19s4-5,4-5s2-12,3-12s7,0,7,0l-4-5l12-1
	l-4-5c0,0,10-2,13-2s33-11,35-14s29-22,37-24C478.5,408.5,507.5,399.5,527,408z"/>
</svg>
