<svg id="Calque_1" data-name="Calque 1" xmlns="http://www.w3.org/2000/svg" viewBox="0 0 535.02 685.85"><defs><style>.cls-1{stroke:#000;stroke-miterlimit:10;stroke-width:4px;}</style></defs><title>logo_rempli</title><path class="cls-1" d="M527,408s-26-28-29-57c0,0-10.5-8.5-12.5-11.5s12-6,12-6-12,0-11-2,7-1,7-3-8-2-8-2-3-3,2-5c0,0-3-4,1-5,0,0,4-15,28-23a3.55,3.55,0,0,0-2-3,9.72,9.72,0,0,1,6-6s7-5,6-7,0-56,20-63c0,0,7-20,12-13,0,0,10-3,11-2,0,0,49-4,60,35,0,0,28,0,30-1a10,10,0,0,1-1,4s6-2,6,0c0,0,0,4-1,5,0,0,11,9,11,11,0,0,32-22,69,14,0,0,8,3,9,3,0,0-1,4-4,5,0,0,15,45-32,69,0,0-5,22-2,26,0,0,5,13,3,15,0,0-3,4-5,3,0,0-1,5-1,6,0,0-4,2-5,0,0,0,0,8-1,10,0,0,0,5-9,6,0,0-18,11-18,14s-21,15-40,18c0,0-6,8,19,34,0,0,2,4,1,5,0,0,7-1,7,1,0,0-2,10-2,11,0,0,17,4,21,2,0,0,2,5,3,5,0,0,71-23,94,14s21,41,16,52-26,37-52,39-43-17-43-17a33.57,33.57,0,0,0-24-6c-14,2-34,0-45-10a147.52,147.52,0,0,1-10,49s-1,10,11,30,13,24,13,24,9,13,11,14,19,13,17,18a4.94,4.94,0,0,1-1,3l1,2-4,4s7,1,6,3a27.36,27.36,0,0,1-4,5l4,2-4,8s12,44,16,48,7,4,7,4-1,5-2,5l4,5-3,5,3,3-5,2s10,9,10,11-5,6-5,6,3,3,3,6,2,16,3,18,6,11,1,13-5,0-5,0,1,5-3,5c0,0-103,27-153-6,0,0-5-1-5-2,0,0-6-3-5-5l-3-3,6-5s2-10,1-12-2-14-1-16,0-24,7-32l-5-2,7-7-9,2,5-7s-3-2-2-3c0,0,15-18,1-41,0,0-8,19-11,23s-2,12-2,12-3,4-5,4-13,24-9,31c0,0,5,17,7,17s8,30,2,41-20,22-35,23c0,0-87,16-139-19,0,0-18,4-17-2,0,0-9-3-5-6s12-9,12-13,14-29,14-29-4-2-2-6,7-8,7-8-2-5,0-7a6.19,6.19,0,0,0,2-4s20-29,31-41l-7-3,11-10s-3-4-2-5,9-8,9-8l-4-2s4-4,5-7c0,0,15-13,8-55,0,0-9,3-10,1s2-11,2-11l-4-1,2-8s-5,4-6,3,0-7,0-7l-4,2s-3-4,0-11,16-52,16-54c0,0-7,9-10,11,0,0-23,23-35,29s-19,23-19,23-5,2-5-1a35.48,35.48,0,0,1,1-7l-9,12s-3-2-4-4,1-6,1-6l-7,6s-4-4-3-6c0,0-6,1-6-1v-6s-29-3-33-23c0,0-12-19-8-46,0,0,14-73,62-42,0,0,8,1,10-2s13-8,15-8c0,0,19-14,18-19s4-5,4-5,2-12,3-12h7l-4-5,12-1-4-5s10-2,13-2,33-11,35-14,29-22,37-24C478.5,408.5,507.5,399.5,527,408Z" transform="translate(-267.68 -197.3)"/></svg>